# xmcd
#
# Track frame offsets:
#	150
#	12438
#	31386
#	44216
#	74036
#	101503
#	120086
#	137724
#	149294
#	163577
#	178969
#	210000
#	231325
#	250152
#	266915
#	279875
#	293352
#	316042
#	333635
#
# Disc length: 4689
#
# Revision: 1
# Processed by: cddbd v1.5.1PL0 Copyright (c) Steve Scherf et al.
# Submitted via: CDex 1.50beta8
# Normalized: r0:TDELIM( - )
#
DISCID=18124f13
DTITLE=Various Artist - 100% HITS The Blues Hits vol.2
DYEAR=1900
DGENRE=Blues
TTITLE0=Howlin` Wolf - Spoonful
TTITLE1=Jonny Land - Good Morning Little School Girl
TTITLE2=Muddy Waters - (I`m Your) Hoochie Coochie Man
TTITLE3=Roy Buchanan - When a Guitar Plays The Blues
TTITLE4=Kenny Wayne Shepherd - Shame, Shame, Shame
TTITLE5=Robert Cray - Smoking Gun
TTITLE6=Eric Clapton - Come Back Baby
TTITLE7=Sonny Boy Williamson - Don`t Start Me Talkin
TTITLE8=Lowell Fulson - Reconsider Baby
TTITLE9=John Lawton - Can`t Get You out of My Mind
TTITLE10=Gary moore - Stormy Monday
TTITLE11=Susan Tedeshi - Just Won`t Burn
TTITLE12=Luther Allison - Little Red Rooster
TTITLE13=Jimmy Thackery and The Drivers - Million Dollar Bill
TTITLE14=Buddy Guy - Let Me Love You Baby
TTITLE15=Albert Collins - Too Tired
TTITLE16=Coco Montoya - Nothing But Love
TTITLE17=Jay Hooks - Voodoo Woman
TTITLE18=B.B. King - The Thrill is Gone
EXTD=
EXTT0=
EXTT1=
EXTT2=
EXTT3=
EXTT4=
EXTT5=
EXTT6=
EXTT7=
EXTT8=
EXTT9=
EXTT10=
EXTT11=
EXTT12=
EXTT13=
EXTT14=
EXTT15=
EXTT16=
EXTT17=
EXTT18=
PLAYORDER=
